{
	"asset":{
		"generator":"Khronos glTF Blender I/O v4.0.44",
		"version":"2.0"
	},
	"scene":0,
	"scenes":[
		{
			"name":"Scene",
			"nodes":[
				0
			]
		}
	],
	"nodes":[
		{
			"mesh":0,
			"name":"Cylinder",
			"rotation":[
				0.7071068286895752,
				0,
				0,
				0.7071068286895752
			]
		}
	],
	"materials":[
		{
			"doubleSided":true,
			"name":"LegoYellow",
			"pbrMetallicRoughness":{
				"baseColorFactor":[
					0.8880730271339417,
					0.6104689836502075,
					0.03820199891924858,
					1
				],
				"metallicFactor":0,
				"roughnessFactor":0.10000002384185791
			}
		}
	],
	"meshes":[
		{
			"name":"Cylinder",
			"primitives":[
				{
					"attributes":{
						"POSITION":0,
						"NORMAL":1,
						"TEXCOORD_0":2
					},
					"indices":3,
					"material":0
				}
			]
		}
	],
	"accessors":[
		{
			"bufferView":0,
			"componentType":5126,
			"count":1634,
			"max":[
				1,
				1,
				0
			],
			"min":[
				-1,
				-1,
				-2.182075023651123
			],
			"type":"VEC3"
		},
		{
			"bufferView":1,
			"componentType":5126,
			"count":1634,
			"type":"VEC3"
		},
		{
			"bufferView":2,
			"componentType":5126,
			"count":1634,
			"type":"VEC2"
		},
		{
			"bufferView":3,
			"componentType":5123,
			"count":5556,
			"type":"SCALAR"
		}
	],
	"bufferViews":[
		{
			"buffer":0,
			"byteLength":19608,
			"byteOffset":0,
			"target":34962
		},
		{
			"buffer":0,
			"byteLength":19608,
			"byteOffset":19608,
			"target":34962
		},
		{
			"buffer":0,
			"byteLength":13072,
			"byteOffset":39216,
			"target":34962
		},
		{
			"buffer":0,
			"byteLength":11112,
			"byteOffset":52288,
			"target":34963
		}
	],
	"buffers":[
		{
			"byteLength":63400,
			"uri":"untitled.bin"
		}
	]
}
