{
	"asset":{
		"generator":"Khronos glTF Blender I/O v4.0.44",
		"version":"2.0"
	},
	"extensionsUsed":[
		"KHR_materials_specular",
		"KHR_materials_ior"
	],
	"scene":0,
	"scenes":[
		{
			"name":"Scene",
			"nodes":[
				0
			]
		}
	],
	"nodes":[
		{
			"mesh":0,
			"name":"texturedMesh",
			"rotation":[
				0.7252442240715027,
				0,
				0,
				0.688491702079773
			],
			"scale":[
				0.0000884754303842783,
				0.00008847547695040703,
				0.00008847547695040703
			],
			"translation":[
				0.8789280652999878,
				1.1798527240753174,
				-5.817829608917236
			]
		}
	],
	"materials":[
		{
			"doubleSided":true,
			"extensions":{
				"KHR_materials_specular":{
					"specularFactor":0
				},
				"KHR_materials_ior":{
					"ior":1.4500000476837158
				}
			},
			"name":"material_1001",
			"pbrMetallicRoughness":{
				"baseColorTexture":{
					"index":0
				},
				"metallicFactor":0
			}
		},
		{
			"doubleSided":true,
			"extensions":{
				"KHR_materials_specular":{
					"specularFactor":0
				},
				"KHR_materials_ior":{
					"ior":1.4500000476837158
				}
			},
			"name":"material_1002",
			"pbrMetallicRoughness":{
				"baseColorTexture":{
					"index":1
				},
				"metallicFactor":0
			}
		},
		{
			"doubleSided":true,
			"extensions":{
				"KHR_materials_specular":{
					"specularFactor":0
				},
				"KHR_materials_ior":{
					"ior":1.4500000476837158
				}
			},
			"name":"material_1003",
			"pbrMetallicRoughness":{
				"baseColorTexture":{
					"index":2
				},
				"metallicFactor":0
			}
		},
		{
			"doubleSided":true,
			"extensions":{
				"KHR_materials_specular":{
					"specularFactor":0
				},
				"KHR_materials_ior":{
					"ior":1.4500000476837158
				}
			},
			"name":"material_1004",
			"pbrMetallicRoughness":{
				"baseColorTexture":{
					"index":3
				},
				"metallicFactor":0
			}
		}
	],
	"meshes":[
		{
			"name":"texturedMesh",
			"primitives":[
				{
					"attributes":{
						"POSITION":0,
						"NORMAL":1,
						"TEXCOORD_0":2
					},
					"indices":3,
					"material":0
				},
				{
					"attributes":{
						"POSITION":4,
						"NORMAL":5,
						"TEXCOORD_0":6
					},
					"indices":7,
					"material":1
				},
				{
					"attributes":{
						"POSITION":8,
						"NORMAL":9,
						"TEXCOORD_0":10
					},
					"indices":11,
					"material":2
				},
				{
					"attributes":{
						"POSITION":12,
						"NORMAL":13,
						"TEXCOORD_0":14
					},
					"indices":15,
					"material":3
				}
			]
		}
	],
	"textures":[
		{
			"sampler":0,
			"source":0
		},
		{
			"sampler":0,
			"source":1
		},
		{
			"sampler":0,
			"source":2
		},
		{
			"sampler":0,
			"source":3
		}
	],
	"images":[
		{
			"mimeType":"image/png",
			"name":"texture_1001",
			"uri":"texture/texture_1001.png"
		},
		{
			"mimeType":"image/png",
			"name":"texture_1002",
			"uri":"texture/texture_1002.png"
		},
		{
			"mimeType":"image/png",
			"name":"texture_1003",
			"uri":"texture/texture_1003.png"
		},
		{
			"mimeType":"image/png",
			"name":"texture_1004",
			"uri":"texture/texture_1004.png"
		}
	],
	"accessors":[
		{
			"bufferView":0,
			"componentType":5126,
			"count":22962,
			"max":[
				72.89901733398438,
				145.8206787109375,
				-83.89962005615234
			],
			"min":[
				-186.03662109375,
				-86.78099822998047,
				-481.6041564941406
			],
			"type":"VEC3"
		},
		{
			"bufferView":1,
			"componentType":5126,
			"count":22962,
			"type":"VEC3"
		},
		{
			"bufferView":2,
			"componentType":5126,
			"count":22962,
			"type":"VEC2"
		},
		{
			"bufferView":3,
			"componentType":5123,
			"count":24807,
			"type":"SCALAR"
		},
		{
			"bufferView":4,
			"componentType":5126,
			"count":29637,
			"max":[
				74.55470275878906,
				145.38893127441406,
				-83.89295959472656
			],
			"min":[
				-187.74771118164062,
				-87.2492446899414,
				-482.12847900390625
			],
			"type":"VEC3"
		},
		{
			"bufferView":5,
			"componentType":5126,
			"count":29637,
			"type":"VEC3"
		},
		{
			"bufferView":6,
			"componentType":5126,
			"count":29637,
			"type":"VEC2"
		},
		{
			"bufferView":7,
			"componentType":5123,
			"count":29637,
			"type":"SCALAR"
		},
		{
			"bufferView":8,
			"componentType":5126,
			"count":41968,
			"max":[
				74.55470275878906,
				145.8206787109375,
				-83.84146881103516
			],
			"min":[
				-187.74771118164062,
				-87.2492446899414,
				-482.12847900390625
			],
			"type":"VEC3"
		},
		{
			"bufferView":9,
			"componentType":5126,
			"count":41968,
			"type":"VEC3"
		},
		{
			"bufferView":10,
			"componentType":5126,
			"count":41968,
			"type":"VEC2"
		},
		{
			"bufferView":11,
			"componentType":5123,
			"count":41970,
			"type":"SCALAR"
		},
		{
			"bufferView":12,
			"componentType":5126,
			"count":8343,
			"max":[
				74.36570739746094,
				145.74879455566406,
				-84.5228500366211
			],
			"min":[
				-187.74771118164062,
				-86.87183380126953,
				-481.6041564941406
			],
			"type":"VEC3"
		},
		{
			"bufferView":13,
			"componentType":5126,
			"count":8343,
			"type":"VEC3"
		},
		{
			"bufferView":14,
			"componentType":5126,
			"count":8343,
			"type":"VEC2"
		},
		{
			"bufferView":15,
			"componentType":5123,
			"count":8343,
			"type":"SCALAR"
		}
	],
	"bufferViews":[
		{
			"buffer":0,
			"byteLength":275544,
			"byteOffset":0,
			"target":34962
		},
		{
			"buffer":0,
			"byteLength":275544,
			"byteOffset":275544,
			"target":34962
		},
		{
			"buffer":0,
			"byteLength":183696,
			"byteOffset":551088,
			"target":34962
		},
		{
			"buffer":0,
			"byteLength":49614,
			"byteOffset":734784,
			"target":34963
		},
		{
			"buffer":0,
			"byteLength":355644,
			"byteOffset":784400,
			"target":34962
		},
		{
			"buffer":0,
			"byteLength":355644,
			"byteOffset":1140044,
			"target":34962
		},
		{
			"buffer":0,
			"byteLength":237096,
			"byteOffset":1495688,
			"target":34962
		},
		{
			"buffer":0,
			"byteLength":59274,
			"byteOffset":1732784,
			"target":34963
		},
		{
			"buffer":0,
			"byteLength":503616,
			"byteOffset":1792060,
			"target":34962
		},
		{
			"buffer":0,
			"byteLength":503616,
			"byteOffset":2295676,
			"target":34962
		},
		{
			"buffer":0,
			"byteLength":335744,
			"byteOffset":2799292,
			"target":34962
		},
		{
			"buffer":0,
			"byteLength":83940,
			"byteOffset":3135036,
			"target":34963
		},
		{
			"buffer":0,
			"byteLength":100116,
			"byteOffset":3218976,
			"target":34962
		},
		{
			"buffer":0,
			"byteLength":100116,
			"byteOffset":3319092,
			"target":34962
		},
		{
			"buffer":0,
			"byteLength":66744,
			"byteOffset":3419208,
			"target":34962
		},
		{
			"buffer":0,
			"byteLength":16686,
			"byteOffset":3485952,
			"target":34963
		}
	],
	"samplers":[
		{
			"magFilter":9729,
			"minFilter":9987
		}
	],
	"buffers":[
		{
			"byteLength":3502640,
			"uri":"thinker.bin"
		}
	]
}
