{
	"asset":{
		"generator":"Khronos glTF Blender I/O v4.0.44",
		"version":"2.0"
	},
	"extensionsUsed":[
		"KHR_materials_specular",
		"KHR_materials_ior"
	],
	"scene":0,
	"scenes":[
		{
			"name":"Scene",
			"nodes":[
				0
			]
		}
	],
	"nodes":[
		{
			"mesh":0,
			"name":"texturedMesh",
			"rotation":[
				0.7252442240715027,
				0,
				0,
				0.688491702079773
			],
			"scale":[
				0.13783293962478638,
				0.13783293962478638,
				0.13783293962478638
			]
		}
	],
	"materials":[
		{
			"doubleSided":true,
			"extensions":{
				"KHR_materials_specular":{
					"specularFactor":0
				},
				"KHR_materials_ior":{
					"ior":1.4500000476837158
				}
			},
			"name":"material_1001",
			"pbrMetallicRoughness":{
				"baseColorTexture":{
					"index":0
				},
				"metallicFactor":0
			}
		},
		{
			"doubleSided":true,
			"extensions":{
				"KHR_materials_specular":{
					"specularFactor":0
				},
				"KHR_materials_ior":{
					"ior":1.4500000476837158
				}
			},
			"name":"material_1002",
			"pbrMetallicRoughness":{
				"baseColorTexture":{
					"index":1
				},
				"metallicFactor":0
			}
		},
		{
			"doubleSided":true,
			"extensions":{
				"KHR_materials_specular":{
					"specularFactor":0
				},
				"KHR_materials_ior":{
					"ior":1.4500000476837158
				}
			},
			"name":"material_1003",
			"pbrMetallicRoughness":{
				"baseColorTexture":{
					"index":2
				},
				"metallicFactor":0
			}
		},
		{
			"doubleSided":true,
			"extensions":{
				"KHR_materials_specular":{
					"specularFactor":0
				},
				"KHR_materials_ior":{
					"ior":1.4500000476837158
				}
			},
			"name":"material_1004",
			"pbrMetallicRoughness":{
				"baseColorTexture":{
					"index":3
				},
				"metallicFactor":0
			}
		}
	],
	"meshes":[
		{
			"name":"texturedMesh",
			"primitives":[
				{
					"attributes":{
						"POSITION":0,
						"NORMAL":1,
						"TEXCOORD_0":2
					},
					"indices":3,
					"material":0
				},
				{
					"attributes":{
						"POSITION":4,
						"NORMAL":5,
						"TEXCOORD_0":6
					},
					"indices":7,
					"material":1
				},
				{
					"attributes":{
						"POSITION":8,
						"NORMAL":9,
						"TEXCOORD_0":10
					},
					"indices":11,
					"material":2
				},
				{
					"attributes":{
						"POSITION":12,
						"NORMAL":13,
						"TEXCOORD_0":14
					},
					"indices":15,
					"material":3
				}
			]
		}
	],
	"textures":[
		{
			"sampler":0,
			"source":0
		},
		{
			"sampler":0,
			"source":1
		},
		{
			"sampler":0,
			"source":2
		},
		{
			"sampler":0,
			"source":3
		}
	],
	"images":[
		{
			"mimeType":"image/png",
			"name":"texture_1001",
			"uri":"texture/texture_1001.png"
		},
		{
			"mimeType":"image/png",
			"name":"texture_1002",
			"uri":"texture/texture_1002.png"
		},
		{
			"mimeType":"image/png",
			"name":"texture_1003",
			"uri":"texture/texture_1003.png"
		},
		{
			"mimeType":"image/png",
			"name":"texture_1004",
			"uri":"texture/texture_1004.png"
		}
	],
	"accessors":[
		{
			"bufferView":0,
			"componentType":5126,
			"count":38360,
			"max":[
				72.90219116210938,
				145.8206787109375,
				-83.89962005615234
			],
			"min":[
				-186.26026916503906,
				-86.81438446044922,
				-482.0866394042969
			],
			"type":"VEC3"
		},
		{
			"bufferView":1,
			"componentType":5126,
			"count":38360,
			"type":"VEC3"
		},
		{
			"bufferView":2,
			"componentType":5126,
			"count":38360,
			"type":"VEC2"
		},
		{
			"bufferView":3,
			"componentType":5123,
			"count":40215,
			"type":"SCALAR"
		},
		{
			"bufferView":4,
			"componentType":5126,
			"count":51538,
			"max":[
				74.41963195800781,
				145.33457946777344,
				-83.89295959472656
			],
			"min":[
				-187.7137908935547,
				-87.2437515258789,
				-482.13104248046875
			],
			"type":"VEC3"
		},
		{
			"bufferView":5,
			"componentType":5126,
			"count":51538,
			"type":"VEC3"
		},
		{
			"bufferView":6,
			"componentType":5126,
			"count":51538,
			"type":"VEC2"
		},
		{
			"bufferView":7,
			"componentType":5123,
			"count":51540,
			"type":"SCALAR"
		},
		{
			"bufferView":8,
			"componentType":5126,
			"count":68968,
			"max":[
				74.56749725341797,
				145.8206787109375,
				-83.84146881103516
			],
			"min":[
				-187.7137908935547,
				-87.2437515258789,
				-482.0866394042969
			],
			"type":"VEC3"
		},
		{
			"bufferView":9,
			"componentType":5126,
			"count":68968,
			"type":"VEC3"
		},
		{
			"bufferView":10,
			"componentType":5126,
			"count":68968,
			"type":"VEC2"
		},
		{
			"bufferView":11,
			"componentType":5125,
			"count":68976,
			"type":"SCALAR"
		},
		{
			"bufferView":12,
			"componentType":5126,
			"count":13911,
			"max":[
				74.56749725341797,
				145.8106231689453,
				-84.5228500366211
			],
			"min":[
				-187.7137908935547,
				-86.9710464477539,
				-481.5615234375
			],
			"type":"VEC3"
		},
		{
			"bufferView":13,
			"componentType":5126,
			"count":13911,
			"type":"VEC3"
		},
		{
			"bufferView":14,
			"componentType":5126,
			"count":13911,
			"type":"VEC2"
		},
		{
			"bufferView":15,
			"componentType":5123,
			"count":13911,
			"type":"SCALAR"
		}
	],
	"bufferViews":[
		{
			"buffer":0,
			"byteLength":460320,
			"byteOffset":0,
			"target":34962
		},
		{
			"buffer":0,
			"byteLength":460320,
			"byteOffset":460320,
			"target":34962
		},
		{
			"buffer":0,
			"byteLength":306880,
			"byteOffset":920640,
			"target":34962
		},
		{
			"buffer":0,
			"byteLength":80430,
			"byteOffset":1227520,
			"target":34963
		},
		{
			"buffer":0,
			"byteLength":618456,
			"byteOffset":1307952,
			"target":34962
		},
		{
			"buffer":0,
			"byteLength":618456,
			"byteOffset":1926408,
			"target":34962
		},
		{
			"buffer":0,
			"byteLength":412304,
			"byteOffset":2544864,
			"target":34962
		},
		{
			"buffer":0,
			"byteLength":103080,
			"byteOffset":2957168,
			"target":34963
		},
		{
			"buffer":0,
			"byteLength":827616,
			"byteOffset":3060248,
			"target":34962
		},
		{
			"buffer":0,
			"byteLength":827616,
			"byteOffset":3887864,
			"target":34962
		},
		{
			"buffer":0,
			"byteLength":551744,
			"byteOffset":4715480,
			"target":34962
		},
		{
			"buffer":0,
			"byteLength":275904,
			"byteOffset":5267224,
			"target":34963
		},
		{
			"buffer":0,
			"byteLength":166932,
			"byteOffset":5543128,
			"target":34962
		},
		{
			"buffer":0,
			"byteLength":166932,
			"byteOffset":5710060,
			"target":34962
		},
		{
			"buffer":0,
			"byteLength":111288,
			"byteOffset":5876992,
			"target":34962
		},
		{
			"buffer":0,
			"byteLength":27822,
			"byteOffset":5988280,
			"target":34963
		}
	],
	"samplers":[
		{
			"magFilter":9729,
			"minFilter":9987
		}
	],
	"buffers":[
		{
			"byteLength":6016104,
			"uri":"thinker.bin"
		}
	]
}
